<svg id="Layer_1" data-name="Layer 1" xmlns="http://www.w3.org/2000/svg" viewBox="0 0 2994 1302.4"><defs><style>.cls-1{fill:#00ffba;}.cls-2{fill:#00c91c;}.cls-2,.cls-3{opacity:0.5;isolation:isolate;}.cls-3{fill:#dffaff;}</style></defs><title>bg</title><g id="Layer_1_copy_2" data-name="Layer 1 copy 2"><path class="cls-1" d="M-609.36,641.23s295.71-138.56,617.9,6.3l.06,0C170.22,720.21,340.28,759.13,508,722.89c185.71-40.12,352.43-136.9,541.42-74.17,147,48.78,268.08,175.72,424.06,112.3,167.31-68,311.75-175.66,489-160.49,151.47,13,271,107.16,420.51,21.8V-523.92H-611Z" transform="translate(611 524)"/></g><g id="Layer_1_copy" data-name="Layer 1 copy"><path class="cls-2" d="M-609.22,160.42S-313.53,79,8.64,164.12l.07,0c161.62,42.68,331.66,65.54,499.39,44.25,185.71-23.57,352.42-80.42,541.4-43.57,147,28.66,268.07,103.23,424,66,167.3-40,311.74-103.19,489-94.28,151.46,7.62,271,63,420.49,12.81V-524H-610.86Z" transform="translate(611 524)"/></g><path class="cls-3" d="M-610.86,367.37s295.85-106,618.2,4.82l.07,0c161.7,55.58,331.84,85.36,499.66,57.63,185.81-30.69,352.61-104.73,541.7-56.74C1195.8,410.42,1317,507.53,1473,459c167.39-52,311.91-134.38,489.24-122.78,151.54,9.92,271.11,82,420.72,16.68V-524l-2988.78.16Z" transform="translate(611 524)"/></svg>