<svg id="Layer_1" data-name="Layer 1" xmlns="http://www.w3.org/2000/svg" viewBox="0 0 560 326.98"><defs><style>.cls-1{fill:#26a774;}.cls-1,.cls-2{fill-rule:evenodd;}.cls-2{fill:#339646;}</style></defs><title>icon</title><path class="cls-1" d="M560,156.17c0,36.7-12.68,66.43-38,89.48-24.31,21.84-54.45,32.45-90.4,32.45H411.72l-47.44-84h75c11,0,20.43-3.64,28-10.62s11.34-16.38,11.34-27.91-3.73-20.62-11.34-27.29-17-10-28-10H321.47L288.65,60a103.93,103.93,0,0,0-20.43-25.78H431.71c35.8,0,65.79,10.92,90.25,32.45,25.36,23,38,52.78,38,89.48ZM305.06,360,218.84,197.42,219.29,360Z" transform="translate(0 -33.02)"/><path class="cls-2" d="M326.24,359.7,218.09,158.29,100.39,359.7H0L167.37,70a78.29,78.29,0,0,1,22.08-25.18Q205.11,33,219.44,33c9.84,0,20,3.95,30,11.83A87.39,87.39,0,0,1,271.2,70L434.54,359.7Z" transform="translate(0 -33.02)"/></svg>