<?xml version="1.0" encoding="utf-8"?>
<!-- Generator: Adobe Illustrator 23.0.1, SVG Export Plug-In . SVG Version: 6.00 Build 0)  -->
<svg version="1.1" id="Layer_1" xmlns="http://www.w3.org/2000/svg" xmlns:xlink="http://www.w3.org/1999/xlink" x="0px" y="0px"
	 viewBox="0 0 560 400" style="enable-background:new 0 0 560 400;" xml:space="preserve">
<style type="text/css">
	.st0{fill-rule:evenodd;clip-rule:evenodd;fill:#26A774;}
	.st1{fill-rule:evenodd;clip-rule:evenodd;fill:#339646;}
</style>
<g id="Guides_For_Artboard">
</g>
<g>
	<g>
		<g>
			<path class="st0" d="M467.7,186.7c0,12.1-8.5,21.9-25.5,29.5c-16.3,7.2-36.5,10.7-60.6,10.7h-13.3l-31.8-27.7h50.3
				c7.4,0,13.7-1.2,18.8-3.5c5.1-2.3,7.6-5.4,7.6-9.2s-2.5-6.8-7.6-9c-5.1-2.2-11.4-3.3-18.8-3.3h-79l-22-19.2
				c-3.7-3.2-8.3-6.1-13.7-8.5h109.6c24,0,44.1,3.6,60.5,10.7C459.2,164.8,467.7,174.6,467.7,186.7L467.7,186.7z M296.8,253.9
				l-57.8-53.6l0.3,53.6H296.8z"/>
		</g>
		<path class="st1" d="M311,253.8l-72.5-66.4l-78.9,66.4H92.3l112.2-95.5c3.6-3.2,8.5-6,14.8-8.3c7-2.6,13.7-3.9,20.1-3.9
			c6.6,0,13.4,1.3,20.1,3.9c6,2.3,10.8,5.1,14.6,8.3l109.5,95.5H311z"/>
	</g>
</g>
</svg>
